<svg xmlns="http://www.w3.org/2000/svg" viewBox="0 0 500 500"><g id="freepik--Floor--inject-3"><ellipse id="freepik--floor--inject-3" cx="250" cy="340.65" rx="238.7" ry="137.82" style="fill:#f5f5f5"></ellipse></g><g id="freepik--Shadows--inject-3"><polygon id="freepik--Shadow--inject-3" points="290.61 191.7 156.56 269.1 99.69 236.26 233.74 158.87 290.61 191.7" style="fill:#ebebeb"></polygon><path id="freepik--shadow--inject-3" d="M92.46,452.39A4.38,4.38,0,0,1,88.92,451a3.07,3.07,0,0,0-2.34-.82l-.39,0-1.82.15-.52,0A4.5,4.5,0,0,1,80.33,449a1.93,1.93,0,0,1-.39-1.67.39.39,0,0,0-.11-.37,3.07,3.07,0,0,0-2.32-.8,2.55,2.55,0,0,0-.39,0l-.53,0a4.5,4.5,0,0,1-3.52-1.39,1.93,1.93,0,0,1-.39-1.67.4.4,0,0,0-.1-.37,3.11,3.11,0,0,0-2.32-.8l-.4,0-.52,0a4.5,4.5,0,0,1-3.52-1.39,1.87,1.87,0,0,1-.39-1.67.42.42,0,0,0-.11-.37,3.09,3.09,0,0,0-2.32-.8h-.4l-.52,0a4.5,4.5,0,0,1-3.52-1.39,1.9,1.9,0,0,1-.39-1.67.42.42,0,0,0-.11-.37,3.09,3.09,0,0,0-2.32-.8h-.4a5.07,5.07,0,0,1-4-1.36,1.93,1.93,0,0,1-.39-1.67l.26-1c.08-.32-.41-.8-1.34-1-1.95-.49-2.57-1.64-2.52-2.55.08-1.26,1.33-2.22,3.2-2.46l.76-.09a2.7,2.7,0,0,0,1.74-.77.41.41,0,0,0,.11-.33l-.19-1.42a2,2,0,0,1,.52-1.58A4.65,4.65,0,0,1,56.89,418h.28l1.73.07a3.18,3.18,0,0,0,2.29-.76c.18-.2.16-.33.15-.37l-.11-.88a2,2,0,0,1,.52-1.58,4.63,4.63,0,0,1,3.43-1.28h.28l1.74.07a3.18,3.18,0,0,0,2.29-.76.47.47,0,0,0,.15-.37l-.12-.88a2,2,0,0,1,.52-1.58,4.68,4.68,0,0,1,3.43-1.27h.29l1.73.07a3.23,3.23,0,0,0,2.29-.75c.18-.2.16-.34.15-.38l-.11-.88a2,2,0,0,1,.51-1.58,4.71,4.71,0,0,1,3.44-1.27h.28l1.74.07a3.23,3.23,0,0,0,2.29-.75.49.49,0,0,0,.15-.38l-.12-.88a2,2,0,0,1,.52-1.57,4.63,4.63,0,0,1,3.43-1.28h.29l2.68.12a2.68,2.68,0,0,0,2.41-1l.17-.44c.54-1.44,2.42-1.95,3.86-1.95A4.43,4.43,0,0,1,103,397a3.07,3.07,0,0,0,2.34.82h.39l1.81-.15a4.78,4.78,0,0,1,.53,0,4.49,4.49,0,0,1,3.51,1.38,1.88,1.88,0,0,1,.39,1.67.47.47,0,0,0,.11.38,3.15,3.15,0,0,0,2.32.8l.4,0a4.61,4.61,0,0,1,.52,0,4.51,4.51,0,0,1,3.52,1.38,1.89,1.89,0,0,1,.39,1.68.42.42,0,0,0,.11.37,3.13,3.13,0,0,0,2.32.8l.4,0a4.61,4.61,0,0,1,.52,0,4.53,4.53,0,0,1,3.52,1.38,1.92,1.92,0,0,1,.39,1.68.42.42,0,0,0,.11.37,3.13,3.13,0,0,0,2.32.8l.4,0,.52,0a4.53,4.53,0,0,1,3.52,1.38,2,2,0,0,1,.39,1.68.39.39,0,0,0,.11.37,3.11,3.11,0,0,0,2.32.8l.39,0,.53,0a4.53,4.53,0,0,1,3.52,1.38,2,2,0,0,1,.39,1.68l-.26,1.05c-.08.31.41.8,1.34,1,1.94.49,2.57,1.64,2.51,2.55-.07,1.26-1.33,2.23-3.19,2.46l-.76.1a2.63,2.63,0,0,0-1.74.76.41.41,0,0,0-.11.33l.18,1.43a1.93,1.93,0,0,1-.51,1.57A4.67,4.67,0,0,1,135,430h-.28l-1.74-.08a3.2,3.2,0,0,0-2.29.76.48.48,0,0,0-.15.37l.12.88a2,2,0,0,1-.52,1.58,4.63,4.63,0,0,1-3.43,1.28h-.28l-1.74-.07a3.18,3.18,0,0,0-2.29.76c-.17.2-.16.33-.15.37l.12.88a2,2,0,0,1-.52,1.58,4.65,4.65,0,0,1-3.44,1.28h-.28l-1.74-.07a3.2,3.2,0,0,0-2.29.76.48.48,0,0,0-.15.37l.12.88a2,2,0,0,1-.52,1.58,4.63,4.63,0,0,1-3.43,1.28h-.28l-1.74-.07a3.18,3.18,0,0,0-2.29.76c-.17.2-.16.33-.15.37l.12.88a2,2,0,0,1-.52,1.58,4.65,4.65,0,0,1-3.44,1.28h-.28L98.9,449a2.75,2.75,0,0,0-2.42,1l-.16.44C95.78,451.88,93.9,452.39,92.46,452.39Z" style="fill:#ebebeb"></path><path id="freepik--shadow--inject-3" d="M362.82,374.39l113-65.24c2.91-1.68,2.91-4.4,0-6.08L308.47,206.45a11.65,11.65,0,0,0-10.54,0l-113,65.24c-2.91,1.68-2.91,4.4,0,6.08l167.35,96.62A11.65,11.65,0,0,0,362.82,374.39Z" style="fill:#ebebeb"></path><polygon id="freepik--shadow--inject-3" points="241.87 468.44 30.64 346.49 205.31 245.65 416.54 367.6 241.87 468.44" style="fill:#ebebeb"></polygon><path id="freepik--shadow--inject-3" d="M362.59,471.85c6.31.55,12.61.85,18.73,1.14,17.91.88,38.82-.25,56.26-4,11.61-2.5,24.82-10,26-23.82,1.75-20.13-20.85-35.07-38.92-35.28-7.13-.08-17.1.95-19.87,8.9-4.58,13.11-15.79,16.3-27.75,17.09-4.1.27-8.29.26-12.33.27-9.1,0-18.19.52-27.3,1-7.2.36-13.64.65-19.32,5.44-2.9,2.44-5.29,7.27-3.9,10.77,1.62,4.09,4.87,8,15.56,11.87C340.14,469,351.35,470.88,362.59,471.85Z" style="fill:#ebebeb"></path></g><g id="freepik--Plant--inject-3"><g id="freepik--Pot--inject-3"><path d="M57.68,239.12c-15.35,8.86-15.35,23.22,0,32.08s40.22,8.86,55.57,0,15.34-23.22,0-32.08S73,230.26,57.68,239.12Z" style="fill:#e0e0e0"></path><path d="M110.8,257.48c13.55-13.82,21.51-48.35,8.29-59.32H51.84c-13.22,11-5.26,45.47,8.28,59.31l.37.38.47.46c.38.37.79.73,1.22,1.09l.33.25c.33.26.66.52,1,.77a19.78,19.78,0,0,0,1.75,1.12c11.15,6.44,29.22,6.44,40.37,0h0a19.92,19.92,0,0,0,1.76-1.12c.34-.24.64-.48,1-.72l.41-.32c.42-.34.81-.69,1.18-1.05.18-.17.36-.35.53-.53Z" style="fill:#ebebeb"></path><path d="M57.68,193.75c-15.35,8.85-15.35,23.22,0,32.08s40.22,8.86,55.57,0,15.34-23.23,0-32.08S73,184.89,57.68,193.75Z" style="fill:#fafafa"></path><path d="M68.56,200c-9.34,5.39-9.34,14.13,0,19.52s24.47,5.39,33.81,0,9.33-14.13,0-19.52S77.89,194.64,68.56,200Z" style="fill:#ebebeb"></path><path d="M102.37,209.29c-9.34-5.39-24.47-5.39-33.81,0A15.53,15.53,0,0,0,63,214.42a15.53,15.53,0,0,0,5.59,5.13c9.34,5.39,24.47,5.39,33.81,0a15.53,15.53,0,0,0,5.59-5.13A15.53,15.53,0,0,0,102.37,209.29Z" style="fill:#e0e0e0"></path><path d="M83,217.38a27.23,27.23,0,0,1-19.21-11,79.48,79.48,0,0,1-5.38-8.25c-5.65-10-6.69-23.36-3.77-25s14.8,11.69,14.8,11.69a72.26,72.26,0,0,1-1.25-17c.5-8.9,2.67-17,5.21-18.61s8.25,9.59,10.69,17.72S88,181.72,88,181.72s1.67-11,4.38-18.71c3-8.44,5.65-10.34,7.74-9.51s3.46,4.77,4.07,16a112,112,0,0,1-.51,16.09s4.19-4.61,8.85-9.08c5.1-4.91,7.29-5.58,8.75-4.65s1.86,8.57-6.05,22.88A88.59,88.59,0,0,1,107,207.13a27.32,27.32,0,0,1-23.54,10.29Z" style="fill:#92E3A9"></path><path d="M83,217.38a27.23,27.23,0,0,1-19.21-11,79.48,79.48,0,0,1-5.38-8.25c-5.65-10-6.69-23.36-3.77-25s14.8,11.69,14.8,11.69a72.26,72.26,0,0,1-1.25-17c.5-8.9,2.67-17,5.21-18.61s8.25,9.59,10.69,17.72S88,181.72,88,181.72s1.67-11,4.38-18.71c3-8.44,5.65-10.34,7.74-9.51s3.46,4.77,4.07,16a112,112,0,0,1-.51,16.09s4.19-4.61,8.85-9.08c5.1-4.91,7.29-5.58,8.75-4.65s1.86,8.57-6.05,22.88A88.59,88.59,0,0,1,107,207.13a27.32,27.32,0,0,1-23.54,10.29Z" style="opacity:0.15"></path><path d="M69.81,156.54a60.32,60.32,0,0,0-1.64,11.26,72.26,72.26,0,0,0,1.25,17l5.9,6.13S69.44,171.38,69.81,156.54Z" style="opacity:0.15"></path><path d="M118.34,172a24.46,24.46,0,0,0-5.83,4.55c-4.66,4.47-8.85,9.08-8.85,9.08a57.06,57.06,0,0,1-1.33,8.44C111,189.05,118.34,172,118.34,172Z" style="opacity:0.15"></path><path d="M91.28,175.26c1.49-9.38,3.64-17.15,5.27-20.55h0c-1.31,1.42-2.74,4-4.24,8.28-2.71,7.72-4.38,18.71-4.38,18.71l1.59,7.63S90.12,182.6,91.28,175.26Z" style="opacity:0.15"></path></g></g><g id="freepik--Picture--inject-3"><g id="freepik--picture--inject-3"><g id="freepik--Frame--inject-3"><polygon points="166.51 243.82 172.33 246.62 269.88 190.37 264.07 187.56 166.51 243.82" style="fill:#92E3A9"></polygon><polygon points="166.51 243.82 172.33 246.62 269.88 190.37 264.07 187.56 166.51 243.82" style="fill:#fff;opacity:0.9"></polygon><polygon points="264.07 187.56 171.76 240.77 157.66 96.96 249.97 43.79 264.07 187.56" style="fill:#fff"></polygon><path d="M264.08,24.15,146.69,91.85l16.78,171.33,117.38-67.7Zm5.8,166.22-97.55,56.25L157.66,97l97.55-56.25Z" style="fill:#92E3A9"></path><path d="M264.08,24.15,146.69,91.85l16.78,171.33,117.38-67.7Zm5.8,166.22-97.55,56.25L157.66,97l97.55-56.25Z" style="fill:#fff;opacity:0.8"></path><polygon points="269.88 190.37 264.07 187.56 249.97 43.79 255.22 40.71 269.88 190.37" style="fill:#92E3A9"></polygon><polygon points="269.88 190.37 264.07 187.56 249.97 43.79 255.22 40.71 269.88 190.37" style="fill:#fff;opacity:0.65"></polygon><polygon points="264.07 24.15 258.18 21.42 140.79 89.12 146.69 91.85 264.07 24.15" style="fill:#92E3A9"></polygon><polygon points="264.07 24.15 258.18 21.42 140.79 89.12 146.69 91.85 264.07 24.15" style="fill:#fff;opacity:0.9"></polygon><polygon points="140.79 89.12 146.69 91.85 163.47 263.18 157.57 260.45 140.79 89.12" style="fill:#92E3A9"></polygon><polygon points="140.79 89.12 146.69 91.85 163.47 263.18 157.57 260.45 140.79 89.12" style="fill:#fff;opacity:0.65"></polygon></g><g id="freepik--Photo--inject-3"><g id="freepik--Chest--inject-3"><path d="M265.58,186.63l-17.07,9.86c-6.86-6.86-13.11-13.13-13.11-13.13l-9-33.42c10.32-.1,13.35,2,21,10.24C252.38,165.6,265.58,186.63,265.58,186.63Z" style="fill:#ffc4c3"></path><g id="freepik--chest--inject-3"><path d="M254.05,193.29l-5.54,3.2-64.11,37c.18-3.95.4-8.23.65-13.2.83-16.51,2.88-25.75,2.88-25.75s2.94,2.27,6-8.24c2.51-8.72-5.29-17.51-7.12-22.49a90.16,90.16,0,0,1,15-9.11c8.31-3.73,19.18-5.22,24.6-4.77,4.37,1.9,8.83,5.84,18.83,14.71,5.44,4.83,9.15,9,10.4,15.33C256.74,185.71,255.66,190.44,254.05,193.29Z" style="fill:#92E3A9"></path></g><g id="freepik--chest--inject-3" style="opacity:0.30000000000000004"><path d="M254.05,193.29l-5.54,3.2-64.11,37c.18-3.95.4-8.23.65-13.2.83-16.51,2.88-25.75,2.88-25.75s2.94,2.27,6-8.24c2.51-8.72-5.29-17.51-7.12-22.49a90.16,90.16,0,0,1,15-9.11c8.31-3.73,19.18-5.22,24.6-4.77,4.37,1.9,8.83,5.84,18.83,14.71,5.44,4.83,9.15,9,10.4,15.33C256.74,185.71,255.66,190.44,254.05,193.29Z" style="fill:#fff"></path></g><g id="freepik--Head--inject-3"><path d="M232.14,115.61c6.43-7.48,3.69-18.9-2.25-24.08-8.12-7.09-22.53-6.37-30.3-3.45-5.24,2-11,6.31-12,11.77-5,6.54-6.66,15.4-3.74,25.25,2.86,9.67,11.27,13.24,11.81,17.73Z" style="fill:#37474f"></path><path d="M187.57,99.85c-4.43,1.23-9.71,10.61-6.38,24.74,2.58,11-2.66,17.16.65,25.13,1.89,4.54,7.55,4.79,8.87,4.25a9.11,9.11,0,0,1-2.87-6.86s2.85,7.84,13.36,7.52,13.59-3.06,13.59-3.06,17.75,3.2,20.73-14.1c-5.73,1.45-11.25-8.53-12.58-24s-1.44-17-1.44-17Z" style="fill:#37474f"></path><path d="M187.44,121.87c4-1.48,5.54,1.5,7.71,2.5a2,2,0,0,0,2.7-1.76c.31-3.15-1.21-9.88,1.65-14.44,3.55-5.69,8.28-7.4,14.62-3.83,5.76-8,15.83-6.93,18.71,15.58,2.21,17.34-1.69,22.74-3.84,24.6-3.18,2.76-6.77,3.12-11.5,3.47l.54,5.47s13.58,9.88,4.65,14c-13.86,6.34-25.05-7.77-25.05-7.77l-2.85-24h0c-.14,1.71-5,3.1-7.71.37C182.39,131.22,182.54,123.68,187.44,121.87Z" style="fill:#ffc4c3"></path><path d="M213.12,134.16l7.17,1.2a3.78,3.78,0,0,1-4.57,3.24C213.75,138.19,212.84,136.35,213.12,134.16Z" style="fill:#874c4c"></path><path d="M217.73,138.47a3.73,3.73,0,0,0-4.27-3,3.37,3.37,0,0,0-.34.1,3.29,3.29,0,0,0,2.6,3A3.77,3.77,0,0,0,217.73,138.47Z" style="fill:#f28f8f"></path><polygon points="217.02 115.29 219.87 129.59 226.1 124.72 217.02 115.29" style="fill:#ffa8a7"></polygon><path d="M228.74,111.74l-5.29-.77a2.7,2.7,0,0,1,3-2.53A2.93,2.93,0,0,1,228.74,111.74Z" style="fill:#263238"></path><path d="M205.73,117.9l4.26-3.75a2.44,2.44,0,0,0-3.73-.48A3.29,3.29,0,0,0,205.73,117.9Z" style="fill:#263238"></path><path d="M224.23,117.57a2,2,0,0,0,2.23,1.89,2.12,2.12,0,0,0,1.77-2.38,2,2,0,0,0-2.22-1.9A2.13,2.13,0,0,0,224.23,117.57Z" style="fill:#263238"></path><path d="M208.43,121.7a2,2,0,0,0,2.23,1.89,2.13,2.13,0,0,0,1.78-2.38,2,2,0,0,0-2.23-1.89A2.13,2.13,0,0,0,208.43,121.7Z" style="fill:#263238"></path><path d="M217.49,148c-4.62,0-13.22-1.37-15.07-5.18,0,0,.17,3.32,4,5.63,3.21,1.94,11.3,2.15,11.3,2.15Z" style="fill:#ffa8a7"></path></g><path d="M198.83,195.27c0,9.92-.51,30.19-.51,30.19l-25.51,14.72s.48-26.3,1.46-44.2c1-18.91,2.2-21.18,3.94-24.21s5.51-5.86,8.56-8C198.88,169.62,198.83,185.35,198.83,195.27Z" style="fill:#ffc4c3"></path></g><polygon points="246.71 45.66 233.11 53.5 163.97 161.28 165.11 172.88 246.71 45.66" style="fill:#92E3A9;opacity:0.05"></polygon><polygon points="219.27 61.47 195.25 75.31 160.8 129 162.81 149.49 219.27 61.47" style="fill:#92E3A9;opacity:0.05"></polygon><polygon points="159.55 116.25 180.29 83.93 166.68 91.78 158.42 104.66 159.55 116.25" style="fill:#92E3A9;opacity:0.05"></polygon><polygon points="171.38 236.88 255.97 105.01 252.21 66.64 167.62 198.51 171.38 236.88" style="fill:#92E3A9;opacity:0.05"></polygon><polygon points="261.5 161.35 233.33 205.25 246.95 197.39 262.63 172.94 261.5 161.35" style="fill:#92E3A9;opacity:0.05"></polygon><polygon points="257.83 124 189.47 230.57 195.33 227.19 213.52 216.69 259.84 144.48 257.83 124" style="fill:#92E3A9;opacity:0.05"></polygon></g></g></g><g id="freepik--Envelope--inject-3"><g id="freepik--envelope--inject-3"><path d="M191.42,272.44a2.08,2.08,0,0,0,1,1.57l.12.07.2.13L213.2,286l141.2,81.51h0a6.46,6.46,0,0,0,3,.75,6.38,6.38,0,0,0,3.27-.76L463.34,308.3l1.66-.95a0,0,0,0,0,0,0,4.09,4.09,0,0,0,2.06-3.58v-9.32a4.12,4.12,0,0,0-1.57-3l-.05,0-16.83-9.71-132-76.25L309,201h0a11.43,11.43,0,0,0-5.14-1.52h-.1a11.56,11.56,0,0,0-6.08,1.43l-.21.11L192.72,261.5l-.05,0a.74.74,0,0,0-.13.08l-.13.08s0,0,0,0a2.18,2.18,0,0,0-.78.87.94.94,0,0,0-.1.23.53.53,0,0,0-.05.2.77.77,0,0,0,0,.15,0,0,0,0,0,0,.05.81.81,0,0,0,0,.16C191.45,264,191.42,272.28,191.42,272.44Z" style="fill:#92E3A9"></path><path d="M359.47,368.05l-.24.07a6.84,6.84,0,0,1-.81.14h0c-.2,0-.41,0-.61,0h-.25v-9a6.41,6.41,0,0,0,3.17-.76L465,298.28a4.06,4.06,0,0,0,2.07-3.8v9.28a4.09,4.09,0,0,1-2.06,3.58,0,0,0,0,1,0,0l-1.66.95L360.72,367.55a5.17,5.17,0,0,1-.71.34Z" style="fill:#fff;opacity:0.25"></path><path d="M191.42,272.44a2.08,2.08,0,0,0,1,1.57l.12.07.2.13L354.4,367.55h0a6.46,6.46,0,0,0,3,.75h.1v-9.05a6.84,6.84,0,0,1-3.12-.75h0L192.52,265l-.12-.07a2.08,2.08,0,0,1-1-1.57C191.45,264,191.42,272.28,191.42,272.44Z" style="fill:#fff;opacity:0.15"></path><path d="M191.42,263.39a2.08,2.08,0,0,0,1,1.57l.12.07L213.22,277l85.51,49.39L354.4,358.5h0a6.46,6.46,0,0,0,3,.75,6.58,6.58,0,0,0,3.27-.76l1.79-1,79.9-46.14,20.93-12.08,1.66-.95h0a4.13,4.13,0,0,0,2.06-3.73v-.12a4.12,4.12,0,0,0-1.57-3l-.05,0-16.83-9.71-132-76.25L309,201h0a11.43,11.43,0,0,0-5.14-1.52h-.1a11.56,11.56,0,0,0-6.08,1.43l-.21.11L192.72,261.5l-.05,0a.74.74,0,0,0-.13.08l-.13.08s0,0,0,0a2.18,2.18,0,0,0-.78.87.94.94,0,0,0-.1.23.53.53,0,0,0-.05.2.44.44,0,0,0,0,.15,0,0,0,0,0,0,.05A.81.81,0,0,0,191.42,263.39Z" style="opacity:0.4"></path><path d="M191.42,263.39a2.08,2.08,0,0,0,1,1.57l.12.07L213.22,277l85.51,49.39L354.4,358.5h0a6.46,6.46,0,0,0,3,.75,6.58,6.58,0,0,0,3.27-.76l1.79-1,79.9-46.14,20.93-12.08,1.66-.95h0a4.13,4.13,0,0,0,2.06-3.73v-.12a13.14,13.14,0,0,0-1.91-.33l-18.75-1.86-97.24-9.68h0L334,281.05c-3.34-.33-6.33-1.55-6.66-2.7l-3-10.16h0l-19-63.58-1.43-4.74v-.06a.91.91,0,0,0-.13-.3,11.56,11.56,0,0,0-6.08,1.43l-.21.11-4.55,2.64L192.72,261.5l-.05,0a.74.74,0,0,0-.13.08l-.13.08s0,0,0,0a2.18,2.18,0,0,0-.78.87.94.94,0,0,0-.1.23.53.53,0,0,0-.05.2.44.44,0,0,0,0,.15,0,0,0,0,0,0,.05A.81.81,0,0,0,191.42,263.39Z" style="fill:#92E3A9"></path><path d="M191.42,263.39a2.08,2.08,0,0,0,1,1.57l.12.07L213.22,277l85.51,49.39L354.4,358.5h0a6.46,6.46,0,0,0,3,.75,6.58,6.58,0,0,0,3.27-.76l1.79-1,79.9-46.14,20.93-12.08,1.66-.95h0a4.13,4.13,0,0,0,2.06-3.73v-.12a13.14,13.14,0,0,0-1.91-.33l-18.75-1.86-97.24-9.68h0L334,281.05c-3.34-.33-6.33-1.55-6.66-2.7l-3-10.16h0l-19-63.58-1.43-4.74v-.06a.91.91,0,0,0-.13-.3,11.56,11.56,0,0,0-6.08,1.43l-.21.11-4.55,2.64L192.72,261.5l-.05,0a.74.74,0,0,0-.13.08l-.13.08s0,0,0,0a2.18,2.18,0,0,0-.78.87.94.94,0,0,0-.1.23.53.53,0,0,0-.05.2.44.44,0,0,0,0,.15,0,0,0,0,0,0,.05A.81.81,0,0,0,191.42,263.39Z" style="fill:#fff;opacity:0.5"></path><path d="M192.72,265.16c-.08,0-.13-.09-.2-.13l-.12-.07a2.09,2.09,0,0,1-1-1.57,2.14,2.14,0,0,1,1.26-1.86l118.13,5.75.25,2.38L213.2,277Z" style="fill:#92E3A9;opacity:0.35000000000000003"></path><path d="M360.73,358.5a6.65,6.65,0,0,1-3.28.76,6.49,6.49,0,0,1-3-.75h0l-55.66-32.14L340.6,290l9.95.36,12,67.11Z" style="fill:#92E3A9;opacity:0.35000000000000003"></path><path d="M191.42,263.39a2.09,2.09,0,0,0,1,1.57l.12.07L354.4,358.5h0a6.49,6.49,0,0,0,3,.75l-9.1-84.15c-.37-3.49-8.37-6.36-18.78-6.73Z" style="fill:#92E3A9"></path><path d="M191.42,263.39a2.09,2.09,0,0,0,1,1.57l.12.07L354.4,358.5h0a6.49,6.49,0,0,0,3,.75l-9.1-84.15c-.37-3.49-8.37-6.36-18.78-6.73Z" style="fill:#fff;opacity:0.55"></path><path d="M303.71,199.5l.52,5,6.61,63,0,.18.16,1.55,1.43,13.68c.37,3.49,8.37,6.36,18.8,6.74l9.35.34h0l9.37.34.56,0,95.53,3.44,21,.76v-.12a4.12,4.12,0,0,0-1.57-3l-.05,0-16.83-9.71L316.55,205.42,309,201h0a11.43,11.43,0,0,0-5.14-1.52Z" style="fill:#92E3A9;opacity:0.35000000000000003"></path><path d="M303.81,199.51l0,.29v.06l.78,4.69L315,267.73l0,.12.17,1.06,1.91,11.63c.54,3.28,7.84,6,17.56,6.54l8.73.49h0l6.33.35.39,0,96.05,5.36,20.89,1.17v0a4.12,4.12,0,0,0-1.57-3l-.05,0-16.83-9.71L316.55,205.42,309,201h0A11.43,11.43,0,0,0,303.81,199.51Z" style="fill:#92E3A9"></path><path d="M303.81,199.51l0,.29v.06l.78,4.69L315,267.73l0,.12.17,1.06,1.91,11.63c.54,3.28,7.84,6,17.56,6.54l8.73.49h0l6.33.35.39,0,96.05,5.36,20.89,1.17v0a4.12,4.12,0,0,0-1.57-3l-.05,0-16.83-9.71L316.55,205.42,309,201h0A11.43,11.43,0,0,0,303.81,199.51Z" style="fill:#fff;opacity:0.6000000000000001"></path></g></g><g id="freepik--Letter--inject-3"><g id="freepik--letter--inject-3"><g id="freepik--Sheet--inject-3"><path d="M202.57,200.05l-3.76-2.18L29.64,295.55v2.17a75.45,75.45,0,0,0,37.61,65.14L241.82,463.65,411,366v-4.35l-172.7-99.7A71.48,71.48,0,0,1,202.57,200.05Z" style="fill:#92E3A9"></path><polygon points="241.83 459.3 410.99 361.63 410.99 365.99 241.82 463.65 241.83 459.3" style="opacity:0.4"></polygon><polygon points="33.4 297.73 29.64 295.55 198.81 197.87 202.57 200.05 33.4 297.73" style="fill:#fff;opacity:0.30000000000000004"></polygon><path d="M411,361.63l-172.7-99.7a71.48,71.48,0,0,1-35.72-61.88L33.4,297.72a71.45,71.45,0,0,0,35.73,61.87l172.7,99.71L411,361.63Z" style="fill:#92E3A9"></path><path d="M72.34,354a65.28,65.28,0,0,1-32.42-52.67l157-90.64a78.24,78.24,0,0,0,38.19,56.75l163.07,94.15L241.83,451.89Z" style="fill:#fafafa"></path><path d="M69.13,359.59l172.7,99.71v4.35L67.24,362.86a75.45,75.45,0,0,1-37.61-65.14v-2.17l3.76,2.17A71.45,71.45,0,0,0,69.13,359.59Z" style="opacity:0.2"></path></g><g id="freepik--Text--inject-3"><text transform="matrix(0.86, -0.5, 0.4, 0.92, 75.38, 330.11)" style="font-size:19.111970901489258px;fill:#263238;font-family:Nickainley-Normal, Nickainley">Dear Anna:</text><path d="M146.54,256.12l33-19c1.19-.69,2.49-.39,2.89.68a2.82,2.82,0,0,1-1.44,3.17L148,260c-1.19.69-2.49.39-2.89-.67A2.82,2.82,0,0,1,146.54,256.12Z" style="fill:#e0e0e0"></path><path d="M89.68,335.86l113.46-65.51a4.64,4.64,0,0,1,4.2-.08c1.12.65,1.06,1.73-.13,2.42L93.74,338.2a4.64,4.64,0,0,1-4.2.08C88.42,337.63,88.48,336.55,89.68,335.86Z" style="fill:#e0e0e0"></path><path d="M97.8,340.55,211.27,275a4.62,4.62,0,0,1,4.19-.07c1.13.65,1.07,1.73-.13,2.42L101.86,342.89a4.62,4.62,0,0,1-4.19.08C96.54,342.32,96.6,341.24,97.8,340.55Z" style="fill:#e0e0e0"></path><path d="M105.93,345.24l113.46-65.52a4.64,4.64,0,0,1,4.2-.07c1.12.65,1.06,1.73-.13,2.42L110,347.58a4.64,4.64,0,0,1-4.2.08C104.67,347,104.73,345.93,105.93,345.24Z" style="fill:#e0e0e0"></path><path d="M114.05,349.93l113.47-65.52a4.62,4.62,0,0,1,4.19-.07c1.13.64,1.07,1.73-.13,2.42L118.11,352.27a4.64,4.64,0,0,1-4.2.08C112.79,351.7,112.85,350.62,114.05,349.93Z" style="fill:#e0e0e0"></path><path d="M130.29,359.31,243.76,293.8a4.64,4.64,0,0,1,4.2-.08c1.12.65,1.06,1.73-.14,2.42L134.35,361.66a4.62,4.62,0,0,1-4.19.07C129,361.09,129.1,360,130.29,359.31Z" style="fill:#e0e0e0"></path><path d="M138.42,364l113.47-65.51a4.62,4.62,0,0,1,4.19-.08c1.12.65,1.06,1.73-.13,2.42L142.48,366.35a4.64,4.64,0,0,1-4.2.07C137.16,365.77,137.22,364.69,138.42,364Z" style="fill:#e0e0e0"></path><path d="M146.54,368.69,260,303.18a4.64,4.64,0,0,1,4.2-.08c1.12.65,1.06,1.73-.14,2.42L150.6,371a4.59,4.59,0,0,1-4.19.08C145.29,370.46,145.35,369.38,146.54,368.69Z" style="fill:#e0e0e0"></path><path d="M154.67,373.38l113.47-65.51a4.62,4.62,0,0,1,4.19-.08c1.12.65,1.06,1.73-.13,2.42L158.73,375.72a4.64,4.64,0,0,1-4.2.08C153.41,375.15,153.47,374.07,154.67,373.38Z" style="fill:#e0e0e0"></path><path d="M170.91,382.76l113.47-65.51a4.68,4.68,0,0,1,4.2-.08c1.12.65,1.06,1.74-.14,2.43L175,385.11a4.65,4.65,0,0,1-4.19.08C169.66,384.54,169.72,383.45,170.91,382.76Z" style="fill:#e0e0e0"></path><path d="M179,387.45l113.47-65.51a4.65,4.65,0,0,1,4.19-.08c1.12.65,1.06,1.74-.13,2.43L183.1,389.8a4.68,4.68,0,0,1-4.2.08C177.78,389.23,177.84,388.14,179,387.45Z" style="fill:#e0e0e0"></path><path d="M199.35,399.18l60.33-34.83a4.62,4.62,0,0,1,4.19-.08c1.12.65,1.06,1.73-.13,2.42l-60.33,34.83a4.64,4.64,0,0,1-4.2.08C198.09,401,198.15,399.87,199.35,399.18Z" style="fill:#e0e0e0"></path></g></g></g><g id="freepik--Stamp--inject-3"><g id="freepik--mail-stamp--inject-3"><path d="M57.13,417.06l1.53.07c2,.09,3.59-.86,3.44-2l-.12-.88c-.14-1.13,1.49-2.07,3.45-2l1.52.06c2,.09,3.59-.85,3.45-2l-.12-.88c-.15-1.13,1.48-2.07,3.44-2l1.53.06c2,.09,3.59-.85,3.44-2l-.12-.88c-.15-1.14,1.49-2.08,3.45-2l1.52.06c2,.09,3.59-.85,3.44-2l-.11-.88c-.15-1.13,1.48-2.08,3.44-2l2.47.11c1.59.07,3-.55,3.38-1.46l.16-.44c.67-1.75,4.83-2,6.08-.34h0a4,4,0,0,0,3.39,1.09l1.82-.15c2.11-.17,3.93.87,3.63,2.1h0c-.31,1.22,1.51,2.27,3.62,2.09h0c2.12-.17,3.93.88,3.63,2.1h0c-.3,1.22,1.52,2.27,3.63,2.09h0c2.12-.17,3.93.88,3.63,2.1h0c-.3,1.22,1.51,2.27,3.63,2.09h0c2.12-.17,3.93.88,3.63,2.1h0c-.3,1.22,1.51,2.27,3.63,2.09h0c2.11-.17,3.93.88,3.63,2.1l-.26,1.05c-.2.82.57,1.62,1.89,1.95h0c2.85.72,2.44,3.13-.6,3.51l-.76.09c-1.57.2-2.64,1-2.52,1.95l.19,1.43c.15,1.13-1.49,2.07-3.45,2l-1.52-.07c-2-.09-3.59.86-3.44,2l.11.88c.15,1.13-1.48,2.07-3.44,2l-1.52-.07c-2-.09-3.6.86-3.45,2l.12.88c.15,1.13-1.49,2.07-3.45,2l-1.52-.06c-2-.09-3.59.85-3.44,2l.11.88c.15,1.13-1.48,2.07-3.44,2l-1.52-.06c-2-.09-3.6.85-3.45,2l.12.88c.15,1.14-1.48,2.08-3.44,2l-2.47-.11c-1.6-.07-3,.55-3.38,1.46l-.16.44c-.67,1.75-4.83,2-6.08.34h0a4,4,0,0,0-3.39-1.09l-1.82.15c-2.11.17-3.93-.87-3.63-2.1h0c.3-1.22-1.51-2.26-3.63-2.09h0c-2.11.17-3.93-.87-3.63-2.1h0c.31-1.22-1.51-2.26-3.62-2.09h0c-2.12.17-3.93-.87-3.63-2.1h0c.3-1.22-1.52-2.27-3.63-2.09h0c-2.12.17-3.93-.87-3.63-2.1h0c.3-1.22-1.51-2.27-3.63-2.09h0c-2.12.17-3.93-.88-3.63-2.1l.26-1.05c.2-.82-.57-1.62-1.89-1.95h0c-2.85-.72-2.44-3.12.6-3.51l.76-.09c1.57-.2,2.64-1,2.52-1.95l-.19-1.43C53.54,417.92,55.17,417,57.13,417.06Z" style="fill:#fafafa"></path><path d="M59.16,420.59,93,401.07c3.22-1.86,7.8-2.24,10.21-.85l31,17.93c2.41,1.39,1.76,4-1.46,5.89L99,443.57c-3.23,1.86-7.8,2.23-10.21.84l-31-17.93C55.28,425.09,55.94,422.45,59.16,420.59Z" style="fill:#92E3A9"></path><path d="M59.16,420.59,93,401.07c3.22-1.86,7.8-2.24,10.21-.85l31,17.93c2.41,1.39,1.76,4-1.46,5.89L99,443.57c-3.23,1.86-7.8,2.23-10.21.84l-31-17.93C55.28,425.09,55.94,422.45,59.16,420.59Z" style="fill:#fff;opacity:0.25"></path><path d="M111.6,418.39a.62.62,0,0,1-.37.06l-5.29-.64-14.72-4c-.25-.07-.4-.22-.37-.38l.38-2.25L90.9,411l-.87.5a.66.66,0,0,1-.58,0,.17.17,0,0,1,0-.33l1-.58a1.06,1.06,0,0,1,.92,0l.5.3c.14.08.21.19.19.3l-.37,2.23,14.57,4,5.14.62c.22,0,.37.15.32.28A.24.24,0,0,1,111.6,418.39Z" style="fill:#37474f"></path><path d="M118.27,422.24a15.34,15.34,0,0,1-13.87,0c-3.84-2.21-3.86-5.81-.05-8a15.36,15.36,0,0,1,13.88,0C122.06,416.44,122.08,420,118.27,422.24Zm-13.14-7.59c-3.39,2-3.37,5.15,0,7.12a13.63,13.63,0,0,0,12.33,0c3.39-2,3.37-5.15,0-7.12A13.63,13.63,0,0,0,105.13,414.65Z" style="fill:#f0f0f0"></path><path d="M119,414a.45.45,0,0,1-.39,0,16.12,16.12,0,0,0-14.6,0c-4,2.32-4,6.1,0,8.43.11.06.11.16,0,.22a.39.39,0,0,1-.39,0c-4.25-2.45-4.28-6.43-.05-8.87s11.12-2.43,15.38,0A.12.12,0,0,1,119,414Z" style="fill:#92E3A9"></path><path d="M119,414a.45.45,0,0,1-.39,0,16.12,16.12,0,0,0-14.6,0c-4,2.32-4,6.1,0,8.43.11.06.11.16,0,.22a.39.39,0,0,1-.39,0c-4.25-2.45-4.28-6.43-.05-8.87s11.12-2.43,15.38,0A.12.12,0,0,1,119,414Z" style="opacity:0.2"></path><path d="M96.53,427a.4.4,0,0,1-.38,0,16.17,16.17,0,0,0-14.61,0c-4,2.31-4,6.1,0,8.43.11.06.11.16,0,.22a.42.42,0,0,1-.38,0c-4.26-2.45-4.28-6.44,0-8.88s11.12-2.42,15.37,0C96.64,426.82,96.64,426.91,96.53,427Z" style="fill:#92E3A9"></path><path d="M96.53,427a.4.4,0,0,1-.38,0,16.17,16.17,0,0,0-14.61,0c-4,2.31-4,6.1,0,8.43.11.06.11.16,0,.22a.42.42,0,0,1-.38,0c-4.26-2.45-4.28-6.44,0-8.88s11.12-2.42,15.37,0C96.64,426.82,96.64,426.91,96.53,427Z" style="opacity:0.2"></path><path d="M95.83,435.2a15.37,15.37,0,0,1-13.87,0c-3.84-2.22-3.86-5.81,0-8a15.34,15.34,0,0,1,13.87,0C99.62,429.4,99.64,433,95.83,435.2Zm-13.15-7.59c-3.39,1.95-3.37,5.15,0,7.12a13.65,13.65,0,0,0,12.34,0c3.39-2,3.37-5.15,0-7.12A13.65,13.65,0,0,0,82.68,427.61Z" style="fill:#f0f0f0"></path><path d="M100,426.73l0,0-10.81,4.62a.64.64,0,0,1-.41,0c-.14,0-.23-.11-.24-.2l-.79-7.8c0-.13.17-.24.39-.24s.42.09.43.22l.74,7.36,10-4.29-1.1-10.9c0-.13.16-.24.38-.25s.42.1.43.23l1.12,11A.23.23,0,0,1,100,426.73Z" style="fill:#37474f"></path><path d="M100,426.73a.65.65,0,0,1-.46,0L82.06,422c-.2-.05-.29-.2-.19-.31a.54.54,0,0,1,.54-.11l17.44,4.78c.21,0,.29.19.2.31A.27.27,0,0,1,100,426.73Z" style="fill:#37474f"></path><path d="M97.41,426h0L89,430.15a.63.63,0,0,1-.57,0c-.15-.1-.11-.25,0-.33l8.37-4.11a.62.62,0,0,1,.58,0C97.57,425.8,97.56,425.94,97.41,426Z" style="fill:#37474f"></path><path d="M82,420.64a5.76,5.76,0,0,0-1.81.8c-.84.54-1,1-.27,1.49a.62.62,0,0,0,.62,0,3.47,3.47,0,0,1,.93-.52,3.42,3.42,0,0,0,1.26-.49c.27-.24.36-.71.86-1.14a8,8,0,0,1,1.42-.85l.33-.22c.17-.11.11-.29-.12-.36a1.92,1.92,0,0,0-1.27,0C83.34,419.66,82.76,420.33,82,420.64Z" style="fill:#92E3A9"></path><path d="M82,420.64a5.76,5.76,0,0,0-1.81.8c-.84.54-1,1-.27,1.49a.62.62,0,0,0,.62,0,3.47,3.47,0,0,1,.93-.52,3.42,3.42,0,0,0,1.26-.49c.27-.24.36-.71.86-1.14a8,8,0,0,1,1.42-.85l.33-.22c.17-.11.11-.29-.12-.36a1.92,1.92,0,0,0-1.27,0C83.34,419.66,82.76,420.33,82,420.64Z" style="opacity:0.2"></path><path d="M95.92,425.62a.62.62,0,0,1-.45,0c-.21-.05-.3-.19-.21-.31,3-3.91,2.39-7.61-1.8-11-.13-.11-.09-.26.09-.33a.63.63,0,0,1,.57.05c4.37,3.54,5,7.39,1.88,11.47Z" style="fill:#37474f"></path><path d="M99.33,420.45a.57.57,0,0,1-.24.06l-1.5.09c-.22,0-.42-.08-.45-.21s.14-.25.37-.26l1.49-.08c.23,0,.43.08.45.21A.19.19,0,0,1,99.33,420.45Z" style="fill:#37474f"></path><path d="M101.47,427.59a3.94,3.94,0,0,1-3.57,0,1.08,1.08,0,0,1,0-2.05,3.92,3.92,0,0,1,3.56,0C102.44,426.1,102.45,427,101.47,427.59Zm-3.17-1.83c-.76.44-.75,1.15,0,1.59a3.06,3.06,0,0,0,2.75,0c.76-.44.75-1.15,0-1.59A3.06,3.06,0,0,0,98.3,425.76Z" style="fill:#f0f0f0"></path><path d="M105.46,426.31a.34.34,0,0,1-.17.05l-5.58.36c-.15,0-.3-.05-.32-.14s.1-.18.25-.19l5.58-.36c.16,0,.3.06.32.15A.12.12,0,0,1,105.46,426.31Z" style="fill:#f0f0f0"></path><path d="M106.1,425.94l-1.52.88a.47.47,0,0,1-.4,0,.13.13,0,0,1,0-.24l1.51-.87a.41.41,0,0,1,.4,0C106.21,425.77,106.21,425.88,106.1,425.94Z" style="fill:#92E3A9"></path><path d="M106.1,425.94l-1.52.88a.47.47,0,0,1-.4,0,.13.13,0,0,1,0-.24l1.51-.87a.41.41,0,0,1,.4,0C106.21,425.77,106.21,425.88,106.1,425.94Z" style="opacity:0.2"></path><path d="M88.24,412.16c-.48-.28-.54-.7-.12-.94a1.82,1.82,0,0,1,1.62.07c.48.28.54.7.12.94A1.79,1.79,0,0,1,88.24,412.16Z" style="fill:#92E3A9"></path><path d="M88.24,412.16c-.48-.28-.54-.7-.12-.94a1.82,1.82,0,0,1,1.62.07c.48.28.54.7.12.94A1.79,1.79,0,0,1,88.24,412.16Z" style="opacity:0.4"></path><path d="M89.39,412l-2.51,1.44c-.31.19-1.13-.28-.81-.47l2.51-1.44C88.86,411.34,89.67,411.8,89.39,412Z" style="fill:#92E3A9"></path><path d="M89.39,412l-2.51,1.44c-.31.19-1.13-.28-.81-.47l2.51-1.44C88.86,411.34,89.67,411.8,89.39,412Z" style="opacity:0.2"></path><path d="M110.84,418.5c-.27-.16-.27-.41,0-.56a1.08,1.08,0,0,1,1,0c.27.16.27.41,0,.56A1.06,1.06,0,0,1,110.84,418.5Z" style="fill:#f0f0f0"></path><path d="M88.39,431.45c-.26-.15-.27-.4,0-.55a1.08,1.08,0,0,1,1,0,.3.3,0,0,1,0,.56A1,1,0,0,1,88.39,431.45Z" style="fill:#f0f0f0"></path></g></g><g id="freepik--Character--inject-3"><g id="freepik--character--inject-3"><path d="M270.12,332.07l.08-.1,144.7-213.1s0,0,0,0l0-.06a1.13,1.13,0,0,1,.1-.13,3.46,3.46,0,0,1,.71-.72,5.1,5.1,0,0,1,.95-.6,8,8,0,0,1,4.08-.64c5.61.42,12.15,4.86,14.6,9.92a7,7,0,0,1,.69,5.18,3.8,3.8,0,0,1-.53,1.09L292.12,344.12l-1.36,2h0c-1,1.51-3.05,2.32-5.83,2.13-5.64-.42-12.19-4.86-14.64-9.93C269.07,335.83,269.08,333.6,270.12,332.07Z" style="fill:#e6e6e6"></path><path d="M261.51,363.27h0L265,358h0a1,1,0,0,1,1-.39,3.21,3.21,0,0,1,2.41,1.64,1,1,0,0,1,0,1h0L265,365.56h0a2.07,2.07,0,0,1-3.45-2.29Z" style="fill:#455a64"></path><path d="M261.34,363.63h0a3.36,3.36,0,0,1,.16-.33l0,0c0,1.33,2.06,2.9,3.35,2.39a.34.34,0,0,1-.08.09.45.45,0,0,1-.07.09,1.57,1.57,0,0,1-.55.39,2.07,2.07,0,0,1-2.76-1A2,2,0,0,1,261.34,363.63Z" style="fill:#263238"></path><path d="M265.1,352.71a11.15,11.15,0,0,0,8.35,5.66,4,4,0,0,0,2.83-.68l13.11-10.28a7.56,7.56,0,0,1-4.48.86c-5.63-.42-12.18-4.86-14.63-9.93a7.44,7.44,0,0,1-.82-4.64l-4.73,15.95a3,3,0,0,0-.08.32A4.17,4.17,0,0,0,265.1,352.71Z" style="fill:#e0e0e0"></path><path d="M268.06,346a13.84,13.84,0,0,0,10.36,7c2,.14,3.41-.44,4.13-1.51s.8-2.63-.08-4.46a13.74,13.74,0,0,0-10.34-7c-2-.15-3.46.44-4.18,1.54S267.2,344.2,268.06,346Z" style="opacity:0.1"></path><path d="M265.1,352.71a11.15,11.15,0,0,0,8.35,5.66,4,4,0,0,0,2.83-.68l13.11-10.28a7.56,7.56,0,0,1-4.48.86c-5.63-.42-12.18-4.86-14.63-9.93a7.44,7.44,0,0,1-.82-4.64l-4.73,15.95a3,3,0,0,0-.08.32A4.17,4.17,0,0,0,265.1,352.71Z" style="fill:#e0e0e0"></path><path d="M263.21,357.2h0l4.31-14.56a2.62,2.62,0,0,1,.11-.4c.53-1.51,2.13-2.39,4.52-2.22a13.78,13.78,0,0,1,10.31,7c1,2.07.82,3.83-.27,4.9a.46.46,0,0,0-.07.07l-.33.26-12.07,9.45h0a2.27,2.27,0,0,1-1.6.39,6.25,6.25,0,0,1-4.69-3.19A2.24,2.24,0,0,1,263.21,357.2Z" style="fill:#92E3A9"></path><path d="M263.21,357.2h0l4.31-14.56a2.62,2.62,0,0,1,.11-.4c.53-1.51,2.13-2.39,4.52-2.22a13.78,13.78,0,0,1,10.31,7c1,2.07.82,3.83-.27,4.9a.46.46,0,0,0-.07.07l-.33.26-12.07,9.45h0a2.27,2.27,0,0,1-1.6.39,6.25,6.25,0,0,1-4.69-3.19A2.24,2.24,0,0,1,263.21,357.2Z" style="opacity:0.2"></path><path d="M268.06,346a13.84,13.84,0,0,0,10.36,7c2,.14,3.41-.44,4.13-1.51s.8-2.63-.08-4.46a13.74,13.74,0,0,0-10.34-7c-2-.15-3.46.44-4.18,1.54S267.2,344.2,268.06,346Z" style="fill:#92E3A9"></path><path d="M268.06,346a13.84,13.84,0,0,0,10.36,7c2,.14,3.41-.44,4.13-1.51s.8-2.63-.08-4.46a13.74,13.74,0,0,0-10.34-7c-2-.15-3.46.44-4.18,1.54S267.2,344.2,268.06,346Z" style="fill:#92E3A9"></path><path d="M268,341.55a3.92,3.92,0,0,1,3.3-1.55,20.4,20.4,0,0,0,11.58,7.94,3.88,3.88,0,0,1-.28,3.56c-.72,1.07-2.16,1.65-4.13,1.51a13.84,13.84,0,0,1-10.36-7C267.2,344.2,267.21,342.63,268,341.55Z" style="opacity:0.05"></path><path d="M263.4,358.91a6.29,6.29,0,0,0,4.71,3.19,2.25,2.25,0,0,0,1.59-.4h0l5.82-4.57a3.94,3.94,0,0,1-2.28.43,10.09,10.09,0,0,1-7.53-5.11,3.8,3.8,0,0,1-.42-2.39l-2.12,7.13h0A2.23,2.23,0,0,0,263.4,358.91Z" style="fill:#92E3A9"></path><path d="M406.78,145.36a2.18,2.18,0,0,1,2.09-.77,6.86,6.86,0,0,1,5.16,3.52,2.17,2.17,0,0,1,.06,2.23h0l-21.42,31.51a2.35,2.35,0,0,0-.17-2,7,7,0,0,0-5.2-3.53,2.26,2.26,0,0,0-2,.63Z" style="fill:#fafafa"></path><path d="M406.84,147.58a6.91,6.91,0,0,0,5.17,3.51,2.17,2.17,0,0,0,2.06-.76,2.14,2.14,0,0,0,0-2.22,6.86,6.86,0,0,0-5.16-3.52,2.18,2.18,0,0,0-2.09.77A2.22,2.22,0,0,0,406.84,147.58Z" style="fill:#e0e0e0"></path><path d="M409.53,129h0l.07-.09.09-.13,6.16-9.06c.06-.1.13-.19.2-.29l0-.07h0c1-1.24,2.74-1.92,5.13-1.74a17.55,17.55,0,0,1,13.14,8.93c1.11,2.29,1.07,4.29.13,5.66h0l-6.26,9.21-.05.07-.05.07h0c-.95,1.31-2.76,2-5.22,1.84-5.05-.37-10.93-4.37-13.14-8.93C408.72,132.28,408.71,130.36,409.53,129Z" style="fill:#92E3A9"></path><path d="M409.53,129h0l.07-.09.09-.13,6.16-9.06c.06-.1.13-.19.2-.29l0-.07h0c1-1.24,2.74-1.92,5.13-1.74a17.55,17.55,0,0,1,13.14,8.93c1.11,2.29,1.07,4.29.13,5.66h0l-6.26,9.21-.05.07-.05.07h0c-.95,1.31-2.76,2-5.22,1.84-5.05-.37-10.93-4.37-13.14-8.93C408.72,132.28,408.71,130.36,409.53,129Z" style="opacity:0.05"></path><path d="M271.66,344.17,280.59,331,385,177.13a0,0,0,0,1,0,0l.19-.29a2.31,2.31,0,0,1,2-.63,7,7,0,0,1,5.19,3.54,2.33,2.33,0,0,1,.17,2v0l-.24.36L287.89,336,279,349.14a2.16,2.16,0,0,1-2.06.76,6.86,6.86,0,0,1-4.13-2.09c-.16-.16-.3-.32-.44-.48a5.7,5.7,0,0,1-.6-.94A2.23,2.23,0,0,1,271.66,344.17Z" style="fill:#263238"></path><path d="M385.23,179.16a6.93,6.93,0,0,0,5.17,3.51,2.16,2.16,0,0,0,2.06-.76,2.12,2.12,0,0,0,0-2.22,6.88,6.88,0,0,0-5.16-3.52,1.91,1.91,0,0,0-2,3Z" style="fill:#263238"></path><path d="M271.66,344.17l1.35-2a21.26,21.26,0,0,0,7.31,5l-1.36,2a2.16,2.16,0,0,1-2.06.76,6.86,6.86,0,0,1-4.13-2.09,5.28,5.28,0,0,1-1-1.42A2.23,2.23,0,0,1,271.66,344.17Z" style="fill:#263238"></path><path d="M415,125.16c2.45,5.07,9,9.51,14.63,9.93,2.78.19,4.81-.62,5.82-2.13s1.14-3.73-.1-6.3c-2.42-5.08-9-9.52-14.6-9.94-2.83-.2-4.89.62-5.91,2.17S413.82,122.65,415,125.16Z" style="fill:#e0e0e0"></path><path d="M415.74,124.14c2.45,5.06,9,9.51,14.63,9.93,2.79.19,4.82-.62,5.83-2.14l.05-.06,1.39-2a.47.47,0,0,1,.07-.12c.07-.1.12-.22.19-.33a2.76,2.76,0,0,0,.2-.47l.11-.32a.11.11,0,0,0,0-.06c0-.09,0-.2.07-.32a5.28,5.28,0,0,0,.08-1.5,3.44,3.44,0,0,0-.05-.45.78.78,0,0,0,0-.22c0-.14-.05-.27-.08-.4a9.86,9.86,0,0,0-.74-2.08c-2.45-5.06-9-9.5-14.6-9.92a8,8,0,0,0-4.08.64h0a3,3,0,0,0-.47.27l-.43.3a1.51,1.51,0,0,0-.23.21l-.14.13a2.43,2.43,0,0,0-.26.29l-.06.06-.22.3-1.21,1.76a2.56,2.56,0,0,0-.17.23C414.54,119.4,414.52,121.62,415.74,124.14Z" style="fill:#92E3A9"></path><path d="M417.14,122.12c2.45,5.06,9,9.51,14.63,9.93,2.79.19,4.82-.62,5.83-2.14s1.13-3.72-.11-6.29c-2.42-5.08-9-9.52-14.6-9.94-2.83-.2-4.88.62-5.91,2.17S415.93,119.61,417.14,122.12Z" style="fill:#fff;opacity:0.30000000000000004"></path><g id="freepik--character--inject-3"><g id="freepik--Bottom--inject-3"><path d="M323.76,448.28c-.82-.08-.74,2.45-.45,3.54s3.61,4.76,9.56,6.07,17.6-.25,21.13-.38,9.62,1.67,13.13,2.22,9.86-.66,12-2.72a4,4,0,0,0,.88-3c-.06-2.43-.28-2.92-.55-2.9Z" style="fill:#37474f"></path><path d="M378.45,442.53c.1.48.19,1,.28,1.45a35,35,0,0,1,.56,8.78c-.74,1.81-2.72,2.78-4.31,3.28-4.19,1.31-7.37,1-12,.06a33.87,33.87,0,0,0-9.09-1c-3.65.2-12.08,1.29-15.71.88a28.14,28.14,0,0,1-9-2.06,11.53,11.53,0,0,1-5.43-5.15c-.15-4.74,1.38-7,3.9-8.43s6.81-1.93,9.84-2.31c4.14-.52,8.09-.85,11.15-1a13.73,13.73,0,0,0,6-1.3,4,4,0,0,0,2-1.9c.5-1.12.49-2.76,1.47-2.85,0,0,16.06-.54,17.52-.4,1.68.18,1.9,6.23,2.09,7.42.15.93.16,1.92.39,2.81Q378.26,441.63,378.45,442.53Z" style="fill:#455a64"></path><path d="M344.27,436.73a2.29,2.29,0,0,0-.75-.29c-1.4-.23-2.48,1.19-3.08,2.3a9,9,0,0,0-.75,2.17,5.24,5.24,0,0,0-.08,2.83c.07.24.24.51.47.45s.27-.32.29-.54a11.2,11.2,0,0,1,1.09-3.81,4.44,4.44,0,0,1,.86-1.39,5.31,5.31,0,0,1,1.54-1.14,5.46,5.46,0,0,1,.93-.08,1.83,1.83,0,0,0-.32-.36Z" style="fill:#fafafa"></path><path d="M350,436.35a2.53,2.53,0,0,0-1.86.52,4.21,4.21,0,0,0-1.27,1.89,6.27,6.27,0,0,0,0,4.9c.25.44.63.22.78-.18a6.86,6.86,0,0,0,.18-1.51,12,12,0,0,1,.65-3,5.8,5.8,0,0,1,.68-1.15,3.7,3.7,0,0,1,.78-.8,1.28,1.28,0,0,1,.38-.16l.43-.05c0-.21-.27-.33-.46-.37A1.57,1.57,0,0,0,350,436.35Z" style="fill:#fafafa"></path><path d="M354.84,434.8a2.47,2.47,0,0,0-1.19.82,4.93,4.93,0,0,0-.78,1.42,12.93,12.93,0,0,0-.37,3,4,4,0,0,0,.5,2.19c.15.26.43.51.7.39s.26-.61.29-.89c.05-.51,0-1,0-1.54a8.9,8.9,0,0,1,1.27-4.7,3.84,3.84,0,0,1,.53-.78c0-.13-.22-.14-.35-.12A2.69,2.69,0,0,0,354.84,434.8Z" style="fill:#fafafa"></path><path d="M378,415.26s-1.43,12.65-1.91,16.23c-.27,2-2.3,3.88-8.3,3.92-4.22,0-9.13-1.17-9.73-3.38L356.89,413Z" style="fill:#ffbda7"></path><path d="M447.52,401.39c-2.14-3.42-6.13-13.29-8.88-23.06l-18.88,9.28s12.75,22.23,14.17,24.27C436.26,415.24,447.52,401.39,447.52,401.39Z" style="fill:#ffbda7"></path><path d="M453.54,408c0-.2-.07-.39-.12-.59a7.53,7.53,0,0,0-3.31-4,11.55,11.55,0,0,1-2.9-3.16c-.47-.63-1.06-1.64-1.79-1.89a7.68,7.68,0,0,0-2.48.11,15.94,15.94,0,0,0-6.57,3.2,17.44,17.44,0,0,0-3.44,3.73,5.75,5.75,0,0,0-1.25,3.4c0,.72.33,1.43,1.66,3.94a18.24,18.24,0,0,1,1.92,5.87,56.84,56.84,0,0,1,0,6.26c0,3.78-.46,3.74-.46,3.74s-6.13-1.37-10.42,1.08a5.14,5.14,0,0,0-2.68,5.95A30.76,30.76,0,0,0,432,440.09c0,.06,0,.12.05.19s2.57,2.91,6,1.6c.24-.11.46-.2.68-.32,3.75-2,13.05-7.3,12.92-7.92a8.06,8.06,0,0,1,0-1.9c.05-1.48.12-3,.18-4.45a22.17,22.17,0,0,1,.25-4.24,22.7,22.7,0,0,0,.54-3.51q.42-4.47.83-8.94A11.73,11.73,0,0,0,453.54,408Z" style="fill:#455a64"></path><path d="M455.32,409c1.69.73,1.15,5.59,0,10.26s-1.79,6.29-1.33,10.21.75,5.67-.81,7.07-13.86,7-13.86,7a47.93,47.93,0,0,0,3-14.6c.5-8.64,1.17-14.2,5.11-18S455.32,409,455.32,409Z"></path><path d="M421.71,435.65s6.9,4,12.32,4.77,5.73-1.4,6.44-8.09,1.13-15.93,3.75-19.95,6.92-5.73,8.58-5.28c.35-.18,2,1.15,2.52,1.94a9,9,0,0,0-7.18,2.81c-3.46,3.37-4.23,10.64-4.52,17.26s-.74,14.28-5.82,15-11.92-1.47-15.22-4.46A3.52,3.52,0,0,1,421.71,435.65Z" style="fill:#37474f"></path><path d="M435.25,426.17a1.87,1.87,0,0,0-.78,1.21,3.84,3.84,0,0,0,1.77,3.51c.68.43,1.27.28.19-1.14A7.49,7.49,0,0,1,435.25,426.17Z" style="fill:#fafafa"></path><path d="M435.24,421.51a1.59,1.59,0,0,0-.48,1c-.05.6,1,3.12,2.16,3.7s.56-.81,0-1.46A24.35,24.35,0,0,1,435.24,421.51Z" style="fill:#fafafa"></path><path d="M434.77,416.29a2.26,2.26,0,0,0-.1,1.45,5.09,5.09,0,0,0,2.93,1.9c.77,0,1.06-.48,0-1A7.86,7.86,0,0,1,434.77,416.29Z" style="fill:#fafafa"></path><path d="M426.62,400.08s-30.7-52.4-31.8-56.8-6.24-26.55-6.24-26.55l-5.54,36c.8,3.85,1.95,9.73,2,14.21,0,6-1,12.75-3.07,24.61-3.24,18.63-4.76,31.81-4.76,31.81-1.32.94-4.73,3-10.55,2.41a27.81,27.81,0,0,1-9.42-3.36s-1.63-28.8-2.18-40.29-.89-29.1-1.29-36.67c-.71-13.66-.25-11.68-.39-34.06-.15-23.22,1.27-58.77,1.27-58.77l59.43-4.1s7.12,9.63,7.7,34.63c.45,19.53,1.58,52.5,1.58,52.5,6,9.8,6.91,12.78,10.1,24.1,2.59,9.18,6.19,20.32,8.09,28.56C436.21,388.2,428.57,395.66,426.62,400.08Z" style="fill:#92E3A9"></path><path d="M426.62,400.08s-30.7-52.4-31.8-56.8-6.24-26.55-6.24-26.55l-5.54,36c.8,3.85,1.95,9.73,2,14.21,0,6-1,12.75-3.07,24.61-3.24,18.63-4.76,31.81-4.76,31.81-1.32.94-4.73,3-10.55,2.41a27.81,27.81,0,0,1-9.42-3.36s-1.63-28.8-2.18-40.29-.89-29.1-1.29-36.67c-.71-13.66-.25-11.68-.39-34.06-.15-23.22,1.27-58.77,1.27-58.77l59.43-4.1s7.12,9.63,7.7,34.63c.45,19.53,1.58,52.5,1.58,52.5,6,9.8,6.91,12.78,10.1,24.1,2.59,9.18,6.19,20.32,8.09,28.56C436.21,388.2,428.57,395.66,426.62,400.08Z" style="opacity:0.35000000000000003"></path><path d="M388.53,316.92l3.64-25.81s8.54-.65,18.81-9.2c0,0-1.35,7.65-15.92,12.88l-3.49,25,2.69,21.14S388.6,317.41,388.53,316.92Z" style="opacity:0.2"></path><path d="M356.57,416c3.95,2.12,17.16,3.28,21.65.24L377,425.93s-2.71,1.92-9.42,1.65c-7.42-.3-10.31-2.28-10.31-2.28Z"></path><path d="M422.36,392.77l4.26,7.31s3.71-6,8.68-8.69c4.54-2.49,7-1.83,7-1.83l-2.75-9.05s-5.71.37-9.87,3.23C423,388.3,422.36,392.77,422.36,392.77Z"></path></g><g id="freepik--Top--inject-3"><polygon points="376.09 160.16 379.91 176.81 400.31 173.79 397.83 155.8 376.09 160.16" style="fill:#ffa8a7"></polygon><path d="M362.73,133.3A81,81,0,0,0,358,143.37l3.95,1.93Z" style="fill:#f28f8f"></path><path d="M372.3,114.2c-7.16.38-9.43,7.58-10.37,23.17-.92,15.16,1,19.53,2.91,21.62,4.43,2.52,9,3,15.22,1.44,4.75-1.19,16.79-4.63,22-12.13,6.09-8.83,7.93-21,1.76-26.1C395.12,115,376.1,114,372.3,114.2Z" style="fill:#ffa8a7"></path><path d="M367,148.66a.55.55,0,0,0-.23.11,1.83,1.83,0,0,0-.13.16,2.79,2.79,0,0,1-.28.32,3.87,3.87,0,0,1-.72.56,5.71,5.71,0,0,1-1.55.59.11.11,0,0,0-.08.08c0,.06,0,.11,0,.16s.28.09.41.08a1.63,1.63,0,0,0,.44-.08,3.77,3.77,0,0,0,.92-.34,3.36,3.36,0,0,0,.78-.56,2.57,2.57,0,0,0,.33-.33l.14-.18a.56.56,0,0,0,.1-.36C367.12,148.81,367.07,148.63,367,148.66Z" style="fill:#b16668"></path><path d="M364.84,159c1.08,1.15,7.67,3.07,11.6,2.69l-.6-2.75A41.21,41.21,0,0,1,364.84,159Z" style="fill:#f28f8f"></path><path d="M371.63,125a5.9,5.9,0,0,0,.85,3.48,7,7,0,0,0,3.89,3,14.22,14.22,0,0,0-1.72,6.28,3.5,3.5,0,0,0,.39,2,1.29,1.29,0,0,0,2.32,0,16.53,16.53,0,0,1,2-3.26,6.19,6.19,0,0,1,3.95-2.09c5.76-.49,5.58,7.22,3.21,10.28-3.88,5-6.9,1.71-6.9,1.71s-2.11,7.77,3.35,11.23c0,0,8.82,2.24,15-.82,4-6,8.75-9.85,11.29-14.87,6-11.89,3.8-21.56-1.63-23.77-.61-4.89-5-8-9.28-9.64-5.82-2.24-11.56-.44-17.55-.58a19.94,19.94,0,0,1-8.82-2.29c-1.21-.64-2.69-1.4-3.83-.66a2.86,2.86,0,0,0-1,1.28,6.29,6.29,0,0,0,.34,5.53c-1.55-1.17-4.35-.71-6,.53-2.33,1.79-2.74,3.94-2,7C360,121.12,363.59,127.14,371.63,125Z" style="fill:#263238"></path><path d="M407.27,119.3l5.54-3.09a3.17,3.17,0,1,0-5.54,3.09Z" style="fill:#263238"></path><path d="M404.56,166.27c8.66-.49,12.43,2.35,15.37,5.81s17.17,27.22,20.88,38.09c1.76,5.15,2.77,6.17-1.62,11.44s-21,22.41-21,22.41l-8.3-12.54L420.44,216l-13.93-25Z" style="fill:#455a64"></path><path d="M410.73,168.27c5.93,2.9,9.87,13.53,9.95,22.52,0,5.69-1.14,20.45-2.13,33.49-.31,4.12.88,16.23,1.37,22.38s1.16,16.78,1.16,16.78-5.34,7.87-26.48,9.74c-25.53,2.26-41.79-6.09-41.79-6.09s.1-24.64.71-42.09c.66-19-.65-37.28,3.1-44.05,1.62-2.25,1.61-4.49,5.88-6.07,3-1.09,15.17-4.34,20.42-5.47C400.31,165.69,404.53,165.23,410.73,168.27Z" style="fill:#37474f"></path><path d="M372.68,171.94c2.68.68,3.92,2.32,7.94,3.22a31,31,0,0,0,18.23-1.32c3.77-1.6,4.76-4,4.76-4s-2.22-6.29-3.05-7.52a2.42,2.42,0,0,0-2-1.12l.22,1.6s.65,1.24-5,2.68c-5.83,1.47-13.68,1.09-16.39.28L377,164.3c-1.41.37-2.25,1.53-3.85,3.69a38.63,38.63,0,0,0-2.89,4.59Z" style="fill:#455a64"></path><path d="M321.33,267.77c-4.53,2.73-6.28,5.18-8.58,6.22a25.29,25.29,0,0,1-4.18,1.48l-3.24,4.77s-1.66-7.78-1.23-11.14,2.17-2,2.49-4.06-.29-3.32,1.43-4.64.71-3,3.55-4.47,15.36-3.55,15.36-3.55Z" style="fill:#ffa8a7"></path><path d="M362.5,174.88c-10.75,3.28-11.49,7.55-14.71,22.1s-6.59,36.64-6.59,36.64-14.78,12.22-23.73,19c-2.9,2.21-4.21,19.55,1.31,18.2,0,0,26.15-13.63,33.84-17.83,9.24-5.05,10.17-7.53,12.93-17.35s7.54-36.79,7.54-36.79S373,178.69,362.5,174.88Z" style="fill:#455a64"></path></g></g></g></g><g id="freepik--speech-bubble--inject-3"><g id="freepik--speech-bubble--inject-3"><g id="freepik--speech-bubble--inject-3"><path d="M388,82.38l-3.11-5.85,2.51-7.22V64.89l-7.66,4.42v4.42l3.29,5.7a.49.49,0,0,0,.23.2h0Z" style="fill:#92E3A9"></path><path d="M388,82.38l-3.11-5.85,2.51-7.22V64.89l-7.66,4.42v4.42l3.29,5.7a.49.49,0,0,0,.23.2h0Z" style="opacity:0.2"></path><path d="M414.77,29.55a5.06,5.06,0,0,0-2.3-4L410.6,24.5a5.08,5.08,0,0,0-4.59,0L357.27,52.64a5.07,5.07,0,0,0-2.3,4V83.46a5.1,5.1,0,0,0,2.3,4l1.87,1.07a5,5,0,0,0,4.59,0l20.79-12,3.28,5.69a.49.49,0,0,0,.89-.08l3.47-10,20.31-11.73a5.06,5.06,0,0,0,2.3-4Z" style="fill:#92E3A9"></path><path d="M355,83.46a5.1,5.1,0,0,0,2.3,4l1.87,1.07a5.09,5.09,0,0,0,4.19.19c-1.08.41-1.9-.2-1.9-1.51V60.35a4.75,4.75,0,0,1,.67-2.27l-6.46-3.73a4.75,4.75,0,0,0-.67,2.27Z" style="opacity:0.2"></path><path d="M414.69,28.9c-.27-1-1.16-1.28-2.22-.67L363.73,56.37a4.57,4.57,0,0,0-1.62,1.72l-6.46-3.73a4.61,4.61,0,0,1,1.62-1.71L406,24.5a5.08,5.08,0,0,1,4.59,0l1.87,1.08A5,5,0,0,1,414.69,28.9Z" style="fill:#fff;opacity:0.30000000000000004"></path></g><path d="M374.13,60.59c-2,1.15-3.59,4.55-3.59,7.6s1.61,4.59,3.59,3.45,3.59-4.54,3.59-7.6S376.11,59.45,374.13,60.59Z" style="fill:#fafafa"></path><path d="M388.1,52.53c-2,1.14-3.59,4.54-3.59,7.59s1.61,4.6,3.59,3.46,3.59-4.55,3.59-7.6S390.08,51.38,388.1,52.53Z" style="fill:#fafafa"></path><path d="M402.13,44.41c-2,1.15-3.59,4.55-3.59,7.6s1.61,4.6,3.59,3.45,3.59-4.54,3.59-7.6S404.11,43.27,402.13,44.41Z" style="fill:#fafafa"></path></g></g></svg>